<?xml version="1.0" encoding="UTF-8"?>
<svg width="112px" height="35px" viewBox="0 0 112 35" version="1.1" xmlns="http://www.w3.org/2000/svg" xmlns:xlink="http://www.w3.org/1999/xlink">
    <!-- Generator: Sketch 54.1 (76490) - https://sketchapp.com -->
    <title>编组 8</title>
    <desc>Created with Sketch.</desc>
    <g id="页面-1" stroke="none" stroke-width="1" fill="none" fill-rule="evenodd">
        <g id="编组-8">
            <path d="M34,21.51 C31.3164182,18.094405 28.3017595,14.9524608 25,12.13 C24.28824,11.499767 23.3800088,11.1357677 22.43,11.1 C21.5268549,11.1337569 20.6653093,11.4883024 20,12.1 L19.36,12.66 C17.53,14.22 11.88,19.47 11.75,19.6 C11.3274333,20.0193459 10.7553177,20.2532296 10.16,20.25 C9.49258225,20.1893664 8.87027544,19.8871031 8.41,19.4 C6.74980513,18.0182196 5.19545586,16.5140107 3.76,14.9 C2.37,13.33 1.22,11.9 1.22,11.9 C1.22,11.9 0.96,12.43 0.82,12.8 C0.720349119,12.9804924 0.720349119,13.1995076 0.82,13.38 C3.498752,16.8058591 6.51378991,19.9548987 9.82,22.78 C10.5340224,23.4636313 11.4815288,23.8497848 12.47,23.86 C13.3903329,23.8372365 14.2712982,23.4820086 14.95,22.86 L15.58,22.29 C17.41,20.73 20.84,17.56 22.46,16.04 L23.19,15.36 C23.6124435,14.9343076 24.1903644,14.6995273 24.79,14.71 C25.4522815,14.7814519 26.0700019,15.0779576 26.54,15.55 C27.54,16.43 29.2,17.96 31.15,20.04 C32.58,21.57 33.68,22.99 33.69,23.04 C33.7,23.09 33.96,22.49 34.1,22.12 C34.1868132,21.9347915 34.167732,21.717266 34.05,21.55" id="Fill-2372" fill="#8EC31F"></path>
            <path d="M15.74,6.37 C14.15,7.54 7.61,13.69 6.32,15.16 C7.03984598,15.9380387 7.81161584,16.6663756 8.63,17.34 C8.79702942,17.4863913 9.01796661,17.5557097 9.23868673,17.5309739 C9.45940685,17.506238 9.65951898,17.389733 9.79,17.21 C12.31,14.65 17.46,10.06 18.15,9.5 C19.8669664,7.81873712 22.5795367,7.71490668 24.42,9.26 C28.307711,12.4134764 31.7491575,16.0803158 34.65,20.16 C34.65,20.16 34.77,19.61 34.84,19.16 C34.8886308,18.8666633 34.8319561,18.5655792 34.68,18.31 C30,11.39 25,7.15 23,6.1 C20.7534988,4.64885388 17.8385735,4.7608126 15.71,6.38" id="Fill-2374" fill="#0085CF"></path>
            <path d="M2,10.48 C2.62785561,11.2508815 3.29542608,11.9885469 4,12.69 C4.09907185,12.7848201 4.23461518,12.8316411 4.37108875,12.8181859 C4.50756232,12.8047308 4.63135255,12.7323417 4.71,12.62 C7.9,9.5 11.37,6.31 13.38,4.74 C16.77,2.09 20.75,1.83 24.63,4.97 C26.2599585,6.28556179 27.7969605,7.71230061 29.23,9.24 C31.2940395,11.5400831 33.188985,13.9864676 34.9,16.56 C34.8790689,16.0384551 34.8121425,15.5197757 34.7,15.01 C34.6546603,14.8035118 34.5876212,14.6023944 34.5,14.41 C33.3694394,12.3101137 32.0292788,10.3300263 30.5,8.5 C26.15,3.37 23.41,1.81 21.65,0.88 C19.28,-0.36 14.73,-0.72 10.44,2.78 C7.49848829,5.20254703 4.68154734,7.77250501 2,10.48 L2,10.48 Z" id="Fill-2376" fill="#0085CF"></path>
            <path d="M19.16,28.57 C20.75,27.39 27.3,21.25 28.58,19.78 C27.8610475,19.0014749 27.092797,18.2699669 26.28,17.59 C26.109972,17.4442282 25.8866249,17.3764035 25.6642494,17.4030125 C25.4418738,17.4296216 25.2408346,17.5482275 25.11,17.73 C22.59,20.29 17.45,24.87 16.76,25.43 C15.0476596,27.118841 12.331367,27.2271461 10.49,25.68 C6.60127058,22.5238132 3.15974708,18.8535277 0.26,14.77 C0.26,14.77 0.14,15.32 0.07,15.77 C0.0164366425,16.0601563 0.0735214719,16.3598517 0.23,16.61 C4.94,23.54 10,27.79 11.88,28.84 C14.1196558,30.2983369 17.0345219,30.1902306 19.16,28.57" id="Fill-2378" fill="#0085CF"></path>
            <path d="M24.46,32.15 C27.409293,29.7326129 30.2329833,27.1659251 32.92,24.46 C32.2922374,23.6858563 31.6246706,22.9448572 30.92,22.24 C30.8227118,22.1455018 30.6886796,22.0987534 30.5537249,22.1122489 C30.4187701,22.1257444 30.2966492,22.198108 30.22,22.31 C27.02,25.44 23.56,28.62 21.55,30.19 C18.15,32.84 14.18,33.1 10.3,29.97 C8.67025023,28.6541971 7.13326436,27.2274733 5.7,25.7 C3.6222831,23.4002018 1.71710981,20.9502158 0,18.37 C0.00966919978,18.8924343 0.076738671,19.4122227 0.2,19.92 C0.240389376,20.131028 0.307601254,20.3360242 0.4,20.53 C1.54600074,22.6291825 2.90301586,24.6060688 4.45,26.43 C8.8,31.56 11.54,33.1 13.3,34.1 C15.63,35.34 20.18,35.7 24.46,32.19" id="Fill-2380" fill="#0085CF"></path>
            <rect id="矩形" fill="#0085CF" fill-rule="nonzero" x="96.36" y="3.83" width="6.68" height="1.49"></rect>
            <path d="M48.81,18.47 L50.47,18.47 L50.47,13.85 L56.65,13.85 L56.65,5.35 L50.47,5.35 L50.47,2.35 L48.81,2.35 L48.81,5.35 L42.69,5.35 L42.69,13.85 L48.81,13.85 L48.81,18.47 Z M50.47,6.83 L55.05,6.83 L55.05,12.36 L50.47,12.36 L50.47,6.83 Z M44.29,12.36 L44.29,6.83 L48.81,6.83 L48.81,12.36 L44.29,12.36 Z" id="形状" fill="#0085CF"></path>
            <path d="M69.84,10.62 L68.71,11.48 L68.82,11.6 C69.3681599,12.197311 69.8823045,12.8249681 70.36,13.48 L70.46,13.6 L71.63,12.7 L71.54,12.58 C71.12,12.04 70.54,11.33 69.92,10.72 L69.84,10.62 Z" id="路径" fill="#0085CF"></path>
            <polygon id="路径" fill="#0085CF" points="68.26 10.5 71.68 10.5 71.68 9.11 68.26 9.11 68.26 7 72 7 72 5.6 63.07 5.6 63.07 7 66.79 7 66.79 9.11 63.38 9.11 63.38 10.5 66.79 10.5 66.79 13.83 62.82 13.83 62.82 15.22 72.25 15.22 72.25 13.83 68.26 13.83"></polygon>
            <path d="M60.45,18.1 L74.65,18.1 L74.65,2.89 L60.45,2.89 L60.45,18.1 Z M62,4.33 L73.13,4.33 L73.13,16.6 L62,16.6 L62,4.33 Z" id="形状" fill="#0085CF"></path>
            <path d="M78.56,15.1 C79.2450659,14.1256296 79.8218098,13.0794429 80.28,11.98 L80.28,18.44 L81.75,18.44 L81.75,11.38 C82.3,11.88 82.75,12.38 83.27,12.79 L83.38,12.9 L84.38,11.73 L84.27,11.63 C83.58,11.02 81.71,9.48 81.71,9.48 L81.71,8.68 L84,8.68 L84,7.24 L81.75,7.24 L81.75,4.91 C82.5083628,4.79644501 83.2595945,4.63952106 84,4.44 L83.69,2.96 C82.7638914,3.19366892 81.825865,3.37726838 80.88,3.51 C79.05,3.76 77.96,3.87 77.96,3.87 L78.13,5.33 C78.13,5.33 79.34,5.19 80.28,5.03 L80.28,7.24 L77.77,7.24 L77.77,8.68 L80.06,8.68 C79.4568781,10.5543054 78.5880308,12.3324114 77.48,13.96 C77.48,13.96 78.55,15.1 78.56,15.1 Z" id="路径" fill="#0085CF"></path>
            <path d="M89.87,9.73 L88.41,9.49 C88.69,9.33 88.95,9.17 89.21,9 C90.7940514,8.02458271 92.0887012,6.64362285 92.96,5 L92.96,3.66 L87.83,3.66 C87.99,3.39333333 88.14,3.12333333 88.28,2.85 L88.36,2.7 L87,2.16 L86.94,2.28 C86.1157853,3.92980803 84.9499744,5.38536719 83.52,6.55 C83.9033661,6.88338037 84.3111744,7.18756531 84.74,7.46 C85.5261259,6.74851209 86.2365709,5.95763934 86.86,5.1 L91.19,5.1 C90.5324113,6.02121112 89.7284459,6.82855453 88.81,7.49 C88.24,6.98 87.75,6.57 87.01,5.99 L86.91,5.91 L85.98,6.91 L86.1,7 C86.75,7.55 87.1,7.89 87.56,8.3 C86.3538748,8.94419735 85.0836171,9.46034428 83.77,9.84 C83.77,9.84 84.7,11.11 84.77,11.1 C85.61,10.8 87.32,10.04 88.06,9.7 C86.9511245,11.5755287 85.3360337,13.1005071 83.4,14.1 C83.7615176,14.4888152 84.1455091,14.8561115 84.55,15.2 C86.0981368,14.4204696 87.4618977,13.3192327 88.55,11.97 L91.83,11.97 C91.447993,13.3998186 90.522077,14.6236068 89.25,15.38 C88.7,14.83 88.17,14.29 87.52,13.7 L86.52,14.62 C87.05,15.1 87.55,15.65 88,16.1 C86.4341328,16.6812409 84.7882745,17.0185069 83.12,17.1 L83.7,18.39 C83.7,18.39 91.89,18.18 93.55,11.82 L93.55,10.48 L89.55,10.48 C89.6960524,10.2487026 89.8040893,9.99549123 89.87,9.73 L89.87,9.73 Z" id="路径" fill="#0085CF"></path>
            <path d="M95.64,15.94 L96.08,17.01 C96.08,17.01 100.36,15.84 101.65,15.64 L101.81,16.03 L103.31,15.46 C102.84,14.27 102.11,12.6 101.56,11.46 L101.5,11.32 L100.14,11.94 L100.2,12.08 C100.56,12.89 100.88,13.63 101.2,14.46 L97.69,15.3 C98.6142215,13.4455033 99.3867463,11.5192077 100,9.54 L103.71,9.54 L103.71,8.1 L95.71,8.1 L95.71,9.59 L98.34,9.59 C97.8079004,11.6751047 97.0290691,13.6893235 96.02,15.59 C95.913805,15.7271032 95.7853545,15.8454128 95.64,15.94 Z" id="路径" fill="#0085CF"></path>
            <path d="M106.85,5.64 C106.85,4.6 106.85,3.55 106.85,2.49 L106.85,2.34 L105.25,2.34 L105.25,2.49 C105.25,3.57 105.25,4.62 105.25,5.64 L103.2,5.64 L103.2,7.16 L105.2,7.16 L105.2,9.16 C105.363685,11.4497994 104.762199,13.7291145 103.49,15.64 C102.960709,16.3957024 102.279518,17.0326156 101.49,17.51 L102.69,18.68 C102.69,18.68 106.75,16.53 106.75,9.79 L106.75,7.14 L109.47,7.14 C109.47,9.9 109.34,12.61 109.19,15.21 C109.19,16.02 108.82,16.4 108.11,16.4 L106.32,16.4 C106.42,16.89 106.59,18.02 106.59,18.02 L108.51,18.02 C109.86,18.02 110.62,17.18 110.74,15.58 C110.88,13.12 110.98,9.82 111.06,5.79 L111.06,5.64 L106.85,5.64 Z" id="路径" fill="#0085CF"></path>
            <path d="M57.11,24.87 C56.9087697,24.7071199 56.6778303,24.5848578 56.43,24.51 C55.9737677,24.39528 55.4962323,24.39528 55.04,24.51 C54.8451875,24.5606145 54.6571704,24.6344784 54.48,24.73 C54.3067165,24.8350675 54.1457174,24.959171 54,25.1 C53.93,25.17 53.86,25.23 53.81,25.29 L53.81,21.39 L52.57,21.39 L52.57,31 L53.81,31 L53.81,26.52 C54.0114897,26.2278854 54.2700117,25.9795681 54.57,25.79 C54.8521949,25.6144869 55.1776782,25.520997 55.51,25.52 C55.8212288,25.4866113 56.1286593,25.6103334 56.33,25.85 C56.5255256,26.1673904 56.6164686,26.5381582 56.59,26.91 L56.59,31 L57.83,31 L57.83,26.74 C57.8422466,26.3470535 57.7741921,25.9557398 57.63,25.59 C57.5128195,25.3140606 57.3351048,25.0679941 57.11,24.87 Z" id="路径" fill="#0085CF"></path>
            <rect id="矩形" fill="#0085CF" fill-rule="nonzero" x="59.16" y="22.01" width="1.24" height="1.37"></rect>
            <rect id="矩形" fill="#0085CF" fill-rule="nonzero" x="59.16" y="24.58" width="1.24" height="6.42"></rect>
            <path d="M66.37,24.95 C66.17675,24.7592733 65.9399102,24.6185424 65.68,24.54 C65.1891018,24.405079 64.6708982,24.405079 64.18,24.54 C63.7880182,24.6396577 63.4271103,24.8355791 63.13,25.11 C63.041842,25.1848177 62.9583522,25.2649679 62.88,25.35 L62.72,24.62 L61.72,24.62 L61.72,31 L63,31 L63,26.52 C63.2077949,26.2298153 63.4691532,25.982034 63.77,25.79 C64.0528301,25.6159214 64.377901,25.5225499 64.71,25.52 C65.0097001,25.4978779 65.3034597,25.6117097 65.51,25.83 C65.7208724,26.1485242 65.8161702,26.5297152 65.78,26.91 L65.78,31 L67,31 L67,26.74 C67.0058941,26.3769599 66.9518344,26.0154358 66.84,25.67 C66.7373858,25.3987636 66.5770135,25.1530869 66.37,24.95 Z" id="路径" fill="#0085CF"></path>
            <path d="M72.83,25.69 C72.6352747,25.2963809 72.3246838,24.9718308 71.94,24.76 C71.4508019,24.5141892 70.9070068,24.39717 70.36,24.42 L69.84,24.42 L69.33,24.5 C69.1773685,24.5293846 69.0269964,24.5694838 68.88,24.62 L68.5,24.77 L68.43,24.77 L68.43,25.86 L68.6,25.8 C68.8574479,25.7017732 69.1214188,25.6215795 69.39,25.56 C69.6702648,25.5072116 69.9548075,25.4804311 70.24,25.48 C70.5599413,25.4646626 70.8788865,25.5263939 71.17,25.66 C71.3718004,25.7708809 71.5408106,25.9329927 71.66,26.13 C71.7067118,26.2285294 71.7403305,26.3327473 71.76,26.44 C71.7709438,26.5831244 71.7709438,26.7268756 71.76,26.87 L71.76,27.14 C71.58,27.08 71.38,27.03 71.16,26.98 C70.8630292,26.926226 70.5617996,26.89945 70.26,26.9 C69.9213784,26.8937864 69.5838965,26.9410339 69.26,27.04 C68.9872177,27.1300828 68.7330855,27.2690084 68.51,27.45 C68.3027303,27.6336994 68.1358733,27.8584456 68.02,28.11 C67.9043623,28.3888056 67.8465277,28.6881846 67.85,28.99 C67.8449967,29.2900971 67.8958619,29.5885065 68,29.87 C68.1029104,30.1215932 68.2560277,30.3495678 68.45,30.54 C68.6443237,30.7266302 68.8761181,30.8697974 69.13,30.96 C69.4031976,31.0551079 69.6907313,31.1024664 69.98,31.1 C70.1991163,31.099906 70.4174002,31.0730403 70.63,31.02 C70.8221483,30.9806623 71.0074651,30.9132744 71.18,30.82 C71.3427509,30.7430985 71.4969371,30.6492461 71.64,30.54 L71.81,30.38 L71.9,30.94 L73,30.94 L73,26.75 C73.0159641,26.5636747 73.0159641,26.3763253 73,26.19 C72.9663894,26.0163635 72.9091929,25.8481385 72.83,25.69 L72.83,25.69 Z M71.83,29.35 L71.66,29.51 C71.5478213,29.599444 71.4309915,29.6828939 71.31,29.76 C71.1598683,29.8437941 71.0025821,29.9140709 70.84,29.97 C70.514023,30.0690377 70.165977,30.0690377 69.84,29.97 C69.720608,29.9310818 69.6113223,29.8661934 69.52,29.78 C69.4225282,29.6961131 69.3470088,29.5896993 69.3,29.47 C69.2449883,29.3264442 69.2178374,29.1737201 69.22,29.02 C69.1948936,28.7372917 69.3108884,28.4604008 69.53,28.28 C69.8006973,28.0974723 70.124153,28.0095767 70.45,28.03 C70.7220178,28.0290553 70.9934226,28.0558607 71.26,28.11 C71.445384,28.1399426 71.6289916,28.1800025 71.81,28.23 L71.83,29.35 Z" id="形状" fill="#0085CF"></path>
            <path d="M50.19,28.18 C49.4051938,29.51322 47.8250334,30.1560602 46.3323901,29.7493512 C44.8397467,29.3426423 43.8041076,27.9870606 43.8041076,26.44 C43.8041076,24.8929394 44.8397467,23.5373577 46.3323901,23.1306488 C47.8250334,22.7239398 49.4051938,23.36678 50.19,24.7 L50.19,24.76 L51.51,24.76 L51.43,24.59 C50.5537884,22.5797634 48.3875233,21.4599168 46.2407769,21.907441 C44.0940305,22.3549652 42.5556626,24.2471028 42.5556626,26.44 C42.5556626,28.6328972 44.0940305,30.5250348 46.2407769,30.972559 C48.3875233,31.4200832 50.5537884,30.3002366 51.43,28.29 L51.5,28.12 L50.23,28.12 L50.19,28.18 Z" id="路径" fill="#0085CF"></path>
            <path d="M81.91,27.1 C81.73,27.53 81.5,28.1 81.24,28.87 C81,28.1 80.77,27.55 80.57,27.1 L78.51,22.1 L76.8,22.1 L76.8,31 L78.09,31 L78.09,26.67 C78.09,25.84 78.09,24.94 78.02,23.97 C78.26,24.59 78.49,25.18 78.71,25.73 L80.92,31 L81.56,31 L83.76,25.73 C83.98,25.21 84.21,24.62 84.45,23.97 C84.45,24.97 84.39,25.86 84.39,26.67 L84.39,31 L85.68,31 L85.68,22.1 L84,22.1 L81.91,27.1 Z" id="路径" fill="#0085CF"></path>
            <path d="M99.25,25.69 C99.1165218,25.4615873 98.9477722,25.2557127 98.75,25.08 C98.5710074,24.9250575 98.3726891,24.7939657 98.16,24.69 C97.963943,24.5918953 97.7553201,24.5212327 97.54,24.48 C97.3490736,24.4412143 97.1548229,24.4211194 96.96,24.42 C96.6168361,24.4210396 96.2771665,24.4889735 95.96,24.62 C95.7352383,24.7187264 95.5263117,24.8501479 95.34,25.01 L95.34,21.34 L94.06,21.34 L94.06,31 L95.06,31 L95.24,30.43 L95.3,30.49 C95.3977487,30.6129033 95.5161913,30.7178096 95.65,30.8 C95.8181379,30.9068733 95.9997256,30.9909417 96.19,31.05 C96.4259414,31.1252277 96.6723672,31.1623603 96.92,31.16 C97.280431,31.16 97.6372944,31.0886273 97.97,30.95 C98.3159569,30.8048225 98.626396,30.5864917 98.88,30.31 C99.1593969,29.9897257 99.3764585,29.6200426 99.52,29.22 C99.6899732,28.7247828 99.7712191,28.203455 99.76,27.68 C99.7615124,27.2995174 99.717874,26.9201992 99.63,26.55 C99.5506199,26.2446887 99.4222901,25.954258 99.25,25.69 L99.25,25.69 Z M98.32,28.69 C98.2584578,28.9507164 98.150028,29.1980719 98,29.42 C97.8644742,29.6113953 97.6864988,29.768835 97.48,29.88 C97.091321,30.0612113 96.6487419,30.0897648 96.24,29.96 C96.0942487,29.9021475 95.9537328,29.8318896 95.82,29.75 C95.7032094,29.6805065 95.5956877,29.5965051 95.5,29.5 C95.4273437,29.4287544 95.3604664,29.3518455 95.3,29.27 L95.3,26.16 C95.4881366,25.9724848 95.7082617,25.8200905 95.95,25.71 C96.383914,25.5000569 96.8826356,25.4677656 97.34,25.62 C97.5408817,25.680138 97.7232319,25.7902363 97.87,25.94 C98.0492076,26.1325379 98.1855407,26.3608959 98.27,26.61 C98.39386,26.9803519 98.4514087,27.3696519 98.44,27.76 C98.4433346,28.0806472 98.4029632,28.4002536 98.32,28.71 L98.32,28.69 Z" id="形状" fill="#0085CF"></path>
            <rect id="矩形" fill="#0085CF" fill-rule="nonzero" x="100.7" y="24.58" width="1.24" height="6.42"></rect>
            <rect id="矩形" fill="#0085CF" fill-rule="nonzero" x="100.7" y="22.01" width="1.24" height="1.37"></rect>
            <rect id="矩形" fill="#0085CF" fill-rule="nonzero" x="103.33" y="21.34" width="1.24" height="9.66"></rect>
            <path d="M110.28,25.17 C110.054698,24.9188336 109.77393,24.7236658 109.46,24.6 C108.785136,24.3347064 108.034864,24.3347064 107.36,24.6 C107.006994,24.7520772 106.690081,24.9769835 106.43,25.26 C106.150812,25.572905 105.933627,25.9360121 105.79,26.33 C105.629903,26.8170425 105.552169,27.3273791 105.56,27.84 C105.546939,28.353778 105.628286,28.8655902 105.8,29.35 C105.946424,29.7338725 106.183088,30.0768645 106.49,30.35 C106.792651,30.616588 107.151568,30.811429 107.54,30.92 C107.948777,31.0420265 108.373406,31.1026878 108.8,31.1 C109.155836,31.1033065 109.51106,31.0697948 109.86,31 C110.150262,30.9508452 110.432724,30.8634165 110.7,30.74 L110.76,30.74 L110.76,29.68 L110.61,29.73 C110.350032,29.8282949 110.082478,29.9052167 109.81,29.96 C109.519822,30.0141842 109.225192,30.0409687 108.93,30.04 C108.639793,30.0405157 108.350735,30.0035432 108.07,29.93 C107.826449,29.8569826 107.599055,29.7381947 107.4,29.58 C107.201871,29.4089228 107.047572,29.1929039 106.95,28.95 C106.845171,28.6857909 106.790897,28.404244 106.79,28.12 L111,28.12 L111,28 C111,27.87 111,27.78 111,27.74 L111,27.61 C111.013829,27.1222204 110.946236,26.6355483 110.8,26.17 C110.691404,25.8068068 110.514957,25.4674858 110.28,25.17 L110.28,25.17 Z M106.85,27.01 C106.8787,26.8376713 106.929101,26.6696691 107,26.51 C107.07639,26.3174918 107.188339,26.1410861 107.33,25.99 C107.467763,25.8481521 107.630479,25.7328955 107.81,25.65 C108.180074,25.489801 108.599926,25.489801 108.97,25.65 C109.12986,25.732027 109.269807,25.848081 109.38,25.99 C109.498557,26.1403479 109.583776,26.314195 109.63,26.5 C109.680947,26.6690492 109.711168,26.8436616 109.72,27.02 L106.85,27.01 Z" id="形状" fill="#0085CF"></path>
            <path d="M89.88,24.4 C88.5183428,24.3878419 87.2839876,25.198726 86.7544578,26.4532603 C86.224928,27.7077946 86.5049431,29.1578834 87.463491,30.1250669 C88.422039,31.0922504 89.8695581,31.3852592 91.1287911,30.867002 C92.388024,30.3487447 93.2099457,29.1217115 93.21,27.76 C93.2153187,26.8724471 92.8671488,26.0192769 92.2423635,25.3888629 C91.6175783,24.758449 90.7675649,24.4026415 89.88,24.4 Z M89.88,30.03 C88.9592384,30.0421697 88.1223512,29.4968847 87.7615264,28.6496801 C87.4007016,27.8024756 87.5874381,26.8212287 88.2342262,26.1657783 C88.8810143,25.5103279 89.8596901,25.3105542 90.7116198,25.6600765 C91.5635495,26.0095989 92.1199196,26.8391579 92.12,27.76 C92.1255544,29.0042908 91.1242546,30.0190009 89.88,30.03 L89.88,30.03 Z" id="形状" fill="#0085CF"></path>
        </g>
    </g>
</svg>