<?xml version="1.0" standalone="no"?><!DOCTYPE svg PUBLIC "-//W3C//DTD SVG 1.1//EN" "http://www.w3.org/Graphics/SVG/1.1/DTD/svg11.dtd"><svg t="1578877454245" class="icon" viewBox="0 0 1085 1024" version="1.1" xmlns="http://www.w3.org/2000/svg" p-id="3655" xmlns:xlink="http://www.w3.org/1999/xlink" width="50.859375" height="48"><defs><style type="text/css"></style></defs><path d="M1026.618397 629.763237a1929.69293 1929.69293 0 0 0-263.499262-274.624787 120.33133 120.33133 0 0 0-75.243678-30.156027 111.255244 111.255244 0 0 0-71.144801 29.277696l-18.737726 16.39551c-53.578183 45.673205-218.997165 199.381108-222.803265 203.187209a65.582039 65.582039 0 0 1-46.551536 19.030502 80.513663 80.513663 0 0 1-51.235968-24.886041 1266.260343 1266.260343 0 0 1-136.141285-131.749632c-40.695997-45.965982-74.365347-87.833087-74.365347-87.833087s-7.612201 15.517179-11.711079 26.349926a17.566617 17.566617 0 0 0 0 16.981064 1907.441881 1907.441881 0 0 0 263.499263 275.21034 113.890237 113.890237 0 0 0 77.585893 31.619912 111.548021 111.548021 0 0 0 72.608686-29.277696l18.444948-16.688287c53.578183-45.673205 154.00068-138.483501 201.430547-182.985598l21.372718-19.908834a64.410931 64.410931 0 0 1 46.844314-19.030502 85.198095 85.198095 0 0 1 51.235967 24.593265c29.277696 25.764372 77.878671 70.559247 134.970178 131.456854 41.867105 44.794875 74.07257 86.369203 74.365347 87.833087s7.904978-16.102733 12.003856-26.93548a16.688287 16.688287 0 0 0-1.463885-16.688287" fill="#8EC31F" p-id="3656"></path><path d="M492.007672 186.498922c-46.551536 34.254904-238.027667 214.312733-275.795895 257.350946a686.561967 686.561967 0 0 0 67.631478 63.825377 23.12938 23.12938 0 0 0 33.962127-3.8061c73.779793-74.950901 224.559927-209.335525 244.761537-225.731035a136.726839 136.726839 0 0 1 183.571152-7.026647 1618.763801 1618.763801 0 0 1 299.510828 319.126884s3.513323-16.102733 5.562762-29.277695a36.889897 36.889897 0 0 0-4.684431-24.886042C909.507614 333.472955 763.119135 209.335525 704.563743 178.593944a185.913368 185.913368 0 0 0-213.434402 8.197755" fill="#0085CF" p-id="3657"></path><path d="M89.732131 306.830252a838.513208 838.513208 0 0 0 58.555392 64.703708 13.760517 13.760517 0 0 0 20.787164-2.049439c93.39585-91.346411 194.989454-184.74226 253.837623-230.708243 99.251389-77.585894 215.776618-85.198095 329.374077 6.73387a1329.792943 1329.792943 0 0 1 134.677401 125.015761 1876.114747 1876.114747 0 0 1 166.004535 214.312733 259.693162 259.693162 0 0 0-5.855539-45.380428 87.833087 87.833087 0 0 0-5.855539-17.566618 1034.966547 1034.966547 0 0 0-117.110783-173.031182c-127.357977-150.194579-207.578863-195.867785-259.107608-223.096042-69.388139-36.304343-202.601655-46.844313-328.20297 55.627622A3304.573525 3304.573525 0 0 0 89.732131 306.830252zM592.137391 836.463769c46.551536-34.547681 238.320444-214.312733 275.795895-257.350946a724.037417 724.037417 0 0 0-67.338701-64.118154 23.422157 23.422157 0 0 0-34.254904 4.098878c-73.779793 74.950901-224.26715 209.042748-244.46876 225.438257a136.434062 136.434062 0 0 1-183.571152 7.319424A1617.592693 1617.592693 0 0 1 38.788941 432.431567s-3.513323 16.102733-5.562763 29.277696a34.547681 34.547681 0 0 0 4.684432 24.593264C175.808557 689.196959 323.953698 813.627166 378.995766 844.368747a185.035037 185.035037 0 0 0 213.141625-7.904978" fill="#0085CF" p-id="3658"></path><path d="M747.309179 941.27792a3273.539167 3273.539167 0 0 0 247.689306-225.145481 842.319308 842.319308 0 0 0-58.555391-64.996484 13.46774 13.46774 0 0 0-20.494387 2.049438c-93.688627 91.639188-194.989454 184.74226-253.837623 230.708243-99.544166 77.585894-215.776618 85.198095-329.374077-6.441093a1332.720713 1332.720713 0 0 1-134.677401-125.015761A1844.494835 1844.494835 0 0 1 31.17674 537.831272a208.749971 208.749971 0 0 0 5.855539 45.380428 73.779793 73.779793 0 0 0 5.855539 17.859395 1030.282115 1030.282115 0 0 0 118.574668 172.738405c127.357977 150.194579 207.578863 195.282231 259.107608 224.559927 68.217031 36.304343 201.430547 46.844313 326.739085-55.920399" fill="#0085CF" p-id="3659"></path></svg>